<svg width="39" height="11" viewBox="0 0 39 11" fill="none" xmlns="http://www.w3.org/2000/svg">
<path d="M1.044 10.044C0.844 10.044 0.656 9.988 0.48 9.876C0.304 9.764 0.216 9.62 0.216 9.444C0.216 9.356 0.236 9.248 0.276 9.12C0.316 9 0.352 8.888 0.384 8.784C0.64 8 0.88 7.268 1.104 6.588C1.328 5.908 1.552 5.248 1.776 4.608C2 3.968 2.236 3.328 2.484 2.688C2.74 2.048 3.024 1.38 3.336 0.684C3.032 0.74 2.76 0.823999 2.52 0.935999C2.288 1.04 2.1 1.136 1.956 1.224C1.812 1.304 1.716 1.344 1.668 1.344C1.636 1.344 1.588 1.328 1.524 1.296C1.468 1.256 1.416 1.212 1.368 1.164C1.32 1.108 1.296 1.06 1.296 1.02C1.504 0.931999 1.748 0.835999 2.028 0.732C2.316 0.628 2.624 0.54 2.952 0.468C3.28 0.396 3.612 0.36 3.948 0.36C4.3 0.36 4.656 0.408 5.016 0.504C5.384 0.6 5.72 0.748 6.024 0.948C6.328 1.14 6.572 1.38 6.756 1.668C6.94 1.956 7.032 2.292 7.032 2.676C7.032 3.092 6.94 3.452 6.756 3.756C6.572 4.052 6.328 4.304 6.024 4.512C5.72 4.712 5.392 4.876 5.04 5.004C4.688 5.124 4.336 5.22 3.984 5.292C3.64 5.356 3.332 5.4 3.06 5.424C2.788 5.44 2.588 5.448 2.46 5.448H2.34C2.1 6.272 1.868 7.084 1.644 7.884C1.428 8.684 1.228 9.404 1.044 10.044ZM2.388 5.256C2.828 5.232 3.272 5.16 3.72 5.04C4.176 4.92 4.592 4.748 4.968 4.524C5.344 4.292 5.648 4.008 5.88 3.672C6.112 3.328 6.228 2.928 6.228 2.472C6.228 2.04 6.124 1.688 5.916 1.416C5.716 1.144 5.448 0.944 5.112 0.816C4.784 0.679999 4.432 0.611999 4.056 0.611999C3.76 1.196 3.472 1.896 3.192 2.712C2.912 3.528 2.644 4.376 2.388 5.256ZM8.16975 9.312C7.89775 9.312 7.68175 9.24 7.52175 9.096C7.36975 8.952 7.29375 8.764 7.29375 8.532C7.29375 8.292 7.34975 8.04 7.46175 7.776C7.57375 7.512 7.68175 7.252 7.78575 6.996C7.89775 6.732 7.95375 6.496 7.95375 6.288C7.95375 6.032 7.87775 5.844 7.72575 5.724C7.58175 5.596 7.43375 5.48 7.28175 5.376C7.09775 5.848 6.90575 6.296 6.70575 6.72C6.50575 7.144 6.34175 7.464 6.21375 7.68L6.10575 7.476C6.21775 7.268 6.36175 6.964 6.53775 6.564C6.72175 6.164 6.90175 5.708 7.07775 5.196C6.99775 5.116 6.95775 5.02 6.95775 4.908C6.95775 4.668 7.02575 4.472 7.16175 4.32C7.29775 4.168 7.39775 4.092 7.46175 4.092C7.54975 4.092 7.59775 4.132 7.60575 4.212C7.62175 4.284 7.62975 4.34 7.62975 4.38C7.62975 4.42 7.60575 4.5 7.55775 4.62C7.51775 4.732 7.49775 4.8 7.49775 4.824C7.49775 4.936 7.55775 5.04 7.67775 5.136C7.80575 5.224 7.94975 5.328 8.10975 5.448C8.26975 5.56 8.40975 5.7 8.52975 5.868C8.65775 6.028 8.72175 6.236 8.72175 6.492C8.72175 6.732 8.66975 6.976 8.56575 7.224C8.46975 7.472 8.36975 7.708 8.26575 7.932C8.16975 8.156 8.12175 8.352 8.12175 8.52C8.12175 8.664 8.15775 8.76 8.22975 8.808C8.30175 8.856 8.38575 8.88 8.48175 8.88C8.67375 8.88 8.86975 8.82 9.06975 8.7C9.27775 8.58 9.47775 8.428 9.66975 8.244C9.86175 8.06 10.0338 7.868 10.1858 7.668C10.3378 7.46 10.4498 7.268 10.5218 7.092L10.6778 7.212C10.5258 7.548 10.3178 7.88 10.0538 8.208C9.78975 8.528 9.49375 8.792 9.16575 9C8.84575 9.208 8.51375 9.312 8.16975 9.312ZM10.8416 9.564C10.5936 9.564 10.3856 9.48 10.2176 9.312C10.0416 9.152 9.95362 8.904 9.95362 8.568C9.95362 8.28 10.0176 7.972 10.1456 7.644C10.2736 7.308 10.4496 6.98 10.6736 6.66C10.8976 6.332 11.1496 6.036 11.4296 5.772C11.7176 5.5 12.0176 5.284 12.3296 5.124C12.6496 4.964 12.9656 4.884 13.2776 4.884C13.5896 4.884 13.8496 4.968 14.0576 5.136C14.2656 5.296 14.3696 5.512 14.3696 5.784C14.3696 5.984 14.3136 6.12 14.2016 6.192C14.0976 6.264 13.9576 6.3 13.7816 6.3C13.7976 6.236 13.8096 6.168 13.8176 6.096C13.8336 6.016 13.8416 5.944 13.8416 5.88C13.8416 5.696 13.7976 5.54 13.7096 5.412C13.6216 5.276 13.4696 5.208 13.2536 5.208C13.0296 5.208 12.8016 5.288 12.5696 5.448C12.3376 5.6 12.1136 5.808 11.8976 6.072C11.6816 6.328 11.4896 6.608 11.3216 6.912C11.1536 7.216 11.0216 7.516 10.9256 7.812C10.8296 8.108 10.7816 8.372 10.7816 8.604C10.7816 8.916 10.8896 9.072 11.1056 9.072C11.2896 9.072 11.4896 8.988 11.7056 8.82C11.9216 8.644 12.1416 8.424 12.3656 8.16C12.5976 7.888 12.8176 7.608 13.0256 7.32C13.2336 7.032 13.4176 6.768 13.5776 6.528C13.6096 6.48 13.6296 6.456 13.6376 6.456C13.6856 6.464 13.7456 6.48 13.8176 6.504C13.8976 6.528 13.9656 6.56 14.0216 6.6C14.0776 6.64 14.1056 6.692 14.1056 6.756C14.1056 6.828 14.0696 6.928 13.9976 7.056C13.9256 7.176 13.8456 7.316 13.7576 7.476C13.6696 7.636 13.5896 7.8 13.5176 7.968C13.4456 8.128 13.4096 8.28 13.4096 8.424C13.4096 8.544 13.4416 8.664 13.5056 8.784C13.5696 8.896 13.6736 8.952 13.8176 8.952C14.0336 8.952 14.3176 8.796 14.6696 8.484C15.0216 8.164 15.3776 7.688 15.7376 7.056L15.8576 7.176C15.6896 7.608 15.4736 7.988 15.2096 8.316C14.9456 8.644 14.6616 8.9 14.3576 9.084C14.0616 9.268 13.7696 9.36 13.4816 9.36C13.1856 9.36 12.9656 9.272 12.8216 9.096C12.6856 8.92 12.6176 8.728 12.6176 8.52C12.6176 8.472 12.6216 8.42 12.6296 8.364C12.6376 8.3 12.6456 8.236 12.6536 8.172C12.3096 8.636 11.9936 8.984 11.7056 9.216C11.4256 9.448 11.1376 9.564 10.8416 9.564ZM16.5122 9.552C16.1682 9.552 15.9042 9.452 15.7202 9.252C15.5362 9.052 15.4442 8.756 15.4442 8.364C15.4442 8.124 15.4762 7.836 15.5402 7.5C15.6122 7.164 15.7042 6.808 15.8162 6.432C15.9362 6.048 16.0642 5.676 16.2002 5.316C16.1202 5.3 16.0442 5.276 15.9722 5.244C15.9002 5.204 15.8322 5.172 15.7682 5.148V4.932C15.8322 4.94 15.9082 4.96 15.9962 4.992C16.0842 5.024 16.1842 5.044 16.2962 5.052C16.5202 4.476 16.7562 3.944 17.0042 3.456C17.2602 2.968 17.5042 2.576 17.7362 2.28C17.9682 1.984 18.1642 1.836 18.3242 1.836C18.3882 1.836 18.4442 1.86 18.4922 1.908C18.5482 1.948 18.5762 2.012 18.5762 2.1C18.5762 2.18 18.5442 2.296 18.4802 2.448C18.4162 2.592 18.3282 2.764 18.2162 2.964C18.1042 3.164 17.9802 3.384 17.8442 3.624C17.7082 3.864 17.5642 4.12 17.4122 4.392C17.2602 4.664 17.1162 4.948 16.9802 5.244C17.1802 5.276 17.3722 5.304 17.5562 5.328C17.7482 5.352 17.9442 5.364 18.1442 5.364C18.3602 5.364 18.5922 5.348 18.8402 5.316C19.0882 5.284 19.3722 5.236 19.6922 5.172C19.9002 4.604 20.1322 4.04 20.3882 3.48C20.6522 2.92 20.9162 2.412 21.1802 1.956C21.4522 1.492 21.7082 1.124 21.9482 0.852C22.1962 0.572 22.4082 0.431999 22.5842 0.431999C22.7282 0.431999 22.8282 0.52 22.8842 0.696C22.9482 0.864 22.9802 1.028 22.9802 1.188C22.9802 1.468 22.9082 1.8 22.7642 2.184C22.6282 2.56 22.4402 2.952 22.2002 3.36C21.9602 3.76 21.6802 4.136 21.3602 4.488C21.0482 4.832 20.7162 5.112 20.3642 5.328C20.2362 5.632 20.1202 5.984 20.0162 6.384C19.9202 6.784 19.8522 7.18 19.8122 7.572C19.7722 7.956 19.7682 8.276 19.8002 8.532C19.9922 7.98 20.2082 7.468 20.4482 6.996C20.6882 6.524 20.9562 6.144 21.2522 5.856C21.5562 5.568 21.8842 5.424 22.2362 5.424C22.5642 5.424 22.7962 5.54 22.9322 5.772C23.0762 5.996 23.1482 6.24 23.1482 6.504C23.1482 6.752 23.1042 6.992 23.0162 7.224C22.9362 7.456 22.8522 7.68 22.7642 7.896C22.6762 8.112 22.6322 8.32 22.6322 8.52C22.6322 8.68 22.6642 8.796 22.7282 8.868C22.8002 8.94 22.8882 8.976 22.9922 8.976C23.1762 8.976 23.3802 8.888 23.6042 8.712C23.8362 8.536 24.0642 8.304 24.2882 8.016C24.5122 7.72 24.7042 7.4 24.8642 7.056L25.0202 7.2C24.8522 7.592 24.6482 7.948 24.4082 8.268C24.1682 8.58 23.9042 8.828 23.6162 9.012C23.3282 9.196 23.0282 9.288 22.7162 9.288C22.4442 9.288 22.2362 9.216 22.0922 9.072C21.9562 8.928 21.8882 8.748 21.8882 8.532C21.8882 8.364 21.9202 8.176 21.9842 7.968C22.0482 7.76 22.1082 7.548 22.1642 7.332C22.2282 7.116 22.2602 6.912 22.2602 6.72C22.2602 6.512 22.2162 6.364 22.1282 6.276C22.0402 6.188 21.9322 6.144 21.8042 6.144C21.6042 6.144 21.4242 6.224 21.2642 6.384C21.1042 6.544 20.9562 6.752 20.8202 7.008C20.6922 7.256 20.5682 7.52 20.4482 7.8C20.3362 8.08 20.2282 8.348 20.1242 8.604C20.0202 8.852 19.9162 9.056 19.8122 9.216C19.7082 9.376 19.6002 9.456 19.4882 9.456C19.4002 9.456 19.3202 9.412 19.2482 9.324C19.1762 9.236 19.1162 9.112 19.0682 8.952C19.0282 8.792 19.0042 8.608 18.9962 8.4C18.9882 8.184 19.0002 7.956 19.0322 7.716C18.7282 8.252 18.3522 8.692 17.9042 9.036C17.4642 9.38 17.0002 9.552 16.5122 9.552ZM16.8602 9.108C17.2762 9.108 17.6842 8.924 18.0842 8.556C18.4842 8.188 18.8362 7.688 19.1402 7.056C19.1962 6.792 19.2522 6.54 19.3082 6.3C19.3722 6.06 19.4562 5.792 19.5602 5.496C19.2882 5.56 19.0282 5.604 18.7802 5.628C18.5402 5.652 18.3082 5.664 18.0842 5.664C17.8602 5.664 17.6482 5.652 17.4482 5.628C17.2482 5.596 17.0482 5.564 16.8482 5.532C16.6642 5.956 16.5082 6.392 16.3802 6.84C16.2522 7.288 16.1882 7.724 16.1882 8.148C16.1882 8.492 16.2402 8.74 16.3442 8.892C16.4482 9.036 16.6202 9.108 16.8602 9.108ZM20.5202 4.86C20.8002 4.636 21.0602 4.368 21.3002 4.056C21.5482 3.736 21.7682 3.412 21.9602 3.084C22.1522 2.748 22.3002 2.44 22.4042 2.16C22.5162 1.872 22.5722 1.652 22.5722 1.5C22.5722 1.436 22.5562 1.404 22.5242 1.404C22.4682 1.404 22.3602 1.492 22.2002 1.668C22.0402 1.844 21.8562 2.088 21.6482 2.4C21.4482 2.712 21.2482 3.08 21.0482 3.504C20.8482 3.92 20.6722 4.372 20.5202 4.86ZM29.9128 9.588C29.4248 9.588 29.0608 9.44 28.8208 9.144C28.5888 8.848 28.4728 8.492 28.4728 8.076C28.1288 8.532 27.7328 8.888 27.2848 9.144C26.8368 9.4 26.3848 9.528 25.9288 9.528C25.4408 9.528 25.0728 9.392 24.8248 9.12C24.5848 8.856 24.4648 8.528 24.4648 8.136C24.4648 7.776 24.5528 7.396 24.7288 6.996C24.9128 6.596 25.1528 6.22 25.4488 5.868C25.7528 5.516 26.0848 5.232 26.4448 5.016C26.8048 4.792 27.1608 4.68 27.5128 4.68C27.6968 4.68 27.8648 4.728 28.0168 4.824C28.1768 4.92 28.2568 5.116 28.2568 5.412C28.2568 5.716 28.1648 6.004 27.9808 6.276C27.8048 6.54 27.5688 6.776 27.2728 6.984C26.9848 7.192 26.6648 7.364 26.3128 7.5C25.9688 7.628 25.6248 7.708 25.2808 7.74C25.2648 7.82 25.2528 7.896 25.2448 7.968C25.2368 8.04 25.2328 8.108 25.2328 8.172C25.2328 8.332 25.2608 8.492 25.3168 8.652C25.3728 8.804 25.4688 8.928 25.6048 9.024C25.7408 9.128 25.9328 9.18 26.1808 9.18C26.6048 9.18 27.0248 9.032 27.4408 8.736C27.8568 8.432 28.2208 8.06 28.5328 7.62C28.6048 7.292 28.7328 6.964 28.9168 6.636C29.1008 6.308 29.3208 6.012 29.5768 5.748C29.8408 5.476 30.1248 5.26 30.4288 5.1C30.7328 4.932 31.0408 4.848 31.3528 4.848C31.5368 4.848 31.7048 4.896 31.8568 4.992C32.0168 5.088 32.0968 5.284 32.0968 5.58C32.0968 5.988 31.9568 6.348 31.6768 6.66C31.4048 6.964 31.0528 7.208 30.6208 7.392C30.1888 7.576 29.7448 7.692 29.2888 7.74C29.2728 7.82 29.2608 7.896 29.2528 7.968C29.2448 8.04 29.2408 8.108 29.2408 8.172C29.2408 8.332 29.2648 8.496 29.3128 8.664C29.3688 8.832 29.4608 8.968 29.5888 9.072C29.7248 9.184 29.9168 9.24 30.1648 9.24C30.5088 9.24 30.8528 9.14 31.1968 8.94C31.5408 8.732 31.8608 8.464 32.1568 8.136C32.4528 7.8 32.7008 7.44 32.9008 7.056L33.0448 7.164C32.8288 7.644 32.5488 8.068 32.2048 8.436C31.8688 8.796 31.5008 9.076 31.1008 9.276C30.7088 9.484 30.3128 9.588 29.9128 9.588ZM25.3408 7.512C25.5568 7.44 25.8008 7.336 26.0728 7.2C26.3448 7.056 26.6048 6.888 26.8528 6.696C27.1088 6.504 27.3168 6.292 27.4768 6.06C27.6448 5.828 27.7288 5.584 27.7288 5.328C27.7288 5.24 27.7128 5.172 27.6808 5.124C27.6488 5.076 27.5808 5.052 27.4768 5.052C27.2848 5.052 27.0808 5.128 26.8648 5.28C26.6488 5.424 26.4408 5.616 26.2408 5.856C26.0408 6.096 25.8608 6.36 25.7008 6.648C25.5408 6.936 25.4208 7.224 25.3408 7.512ZM29.3488 7.512C29.5648 7.44 29.8008 7.344 30.0568 7.224C30.3128 7.104 30.5568 6.964 30.7888 6.804C31.0208 6.636 31.2128 6.448 31.3648 6.24C31.5168 6.024 31.5928 5.788 31.5928 5.532C31.5928 5.444 31.5728 5.372 31.5328 5.316C31.4928 5.252 31.4208 5.22 31.3168 5.22C31.0608 5.22 30.8008 5.332 30.5368 5.556C30.2808 5.78 30.0448 6.068 29.8288 6.42C29.6208 6.764 29.4608 7.128 29.3488 7.512ZM36.2124 9.456C35.9884 9.456 35.7964 9.38 35.6364 9.228C35.4764 9.076 35.3484 8.884 35.2524 8.652C35.1644 8.42 35.0964 8.184 35.0484 7.944C35.0084 7.696 34.9884 7.48 34.9884 7.296C35.0764 7.296 35.2044 7.276 35.3724 7.236C35.5404 7.188 35.7124 7.12 35.8884 7.032C36.0644 6.936 36.2124 6.816 36.3324 6.672C36.4604 6.52 36.5244 6.344 36.5244 6.144C36.5244 5.976 36.4644 5.844 36.3444 5.748C36.2244 5.652 36.0844 5.604 35.9244 5.604C35.6764 5.604 35.4444 5.692 35.2284 5.868C35.0124 6.036 34.8164 6.26 34.6404 6.54C34.4724 6.812 34.3204 7.104 34.1844 7.416C34.0484 7.728 33.9324 8.024 33.8364 8.304C33.7404 8.584 33.6604 8.816 33.5964 9C33.5484 9.144 33.4804 9.24 33.3924 9.288C33.3044 9.344 33.2124 9.372 33.1164 9.372C32.9804 9.372 32.8804 9.316 32.8164 9.204C32.7604 9.092 32.7244 8.952 32.7084 8.784C32.7004 8.608 32.6964 8.428 32.6964 8.244C32.6964 7.828 32.7644 7.348 32.9004 6.804C33.0364 6.26 33.2164 5.696 33.4404 5.112C33.6724 4.52 33.9244 3.948 34.1964 3.396C34.4684 2.844 34.7404 2.344 35.0124 1.896C35.2844 1.448 35.5364 1.092 35.7684 0.827999C36.0004 0.563999 36.1884 0.431999 36.3324 0.431999C36.4444 0.431999 36.5324 0.507999 36.5964 0.659999C36.6684 0.811999 36.7044 0.995999 36.7044 1.212C36.7044 1.484 36.6444 1.792 36.5244 2.136C36.4044 2.472 36.2324 2.812 36.0084 3.156C35.7924 3.5 35.5324 3.824 35.2284 4.128C34.9324 4.432 34.6084 4.692 34.2564 4.908C33.9924 5.556 33.7924 6.188 33.6564 6.804C33.5284 7.412 33.4644 7.924 33.4644 8.34C33.5924 8.02 33.7444 7.668 33.9204 7.284C34.1044 6.9 34.3124 6.532 34.5444 6.18C34.7764 5.828 35.0284 5.54 35.3004 5.316C35.5724 5.092 35.8564 4.98 36.1524 4.98C36.4484 4.98 36.7004 5.084 36.9084 5.292C37.1164 5.5 37.2204 5.752 37.2204 6.048C37.2204 6.304 37.1524 6.524 37.0164 6.708C36.8884 6.884 36.7284 7.028 36.5364 7.14C36.3524 7.244 36.1644 7.324 35.9724 7.38C35.7884 7.428 35.6364 7.452 35.5164 7.452C35.5244 7.516 35.5484 7.632 35.5884 7.8C35.6284 7.968 35.6844 8.144 35.7564 8.328C35.8364 8.512 35.9324 8.672 36.0444 8.808C36.1564 8.936 36.2924 9 36.4524 9C36.6844 9 36.9044 8.912 37.1124 8.736C37.3204 8.56 37.5164 8.328 37.7004 8.04C37.8924 7.744 38.0684 7.412 38.2284 7.044L38.3484 7.164C38.2364 7.556 38.0644 7.928 37.8324 8.28C37.6004 8.624 37.3404 8.904 37.0524 9.12C36.7724 9.344 36.4924 9.456 36.2124 9.456ZM34.4604 4.428C34.8284 4.132 35.1484 3.796 35.4204 3.42C35.7004 3.044 35.9164 2.684 36.0684 2.34C36.2204 1.988 36.2964 1.712 36.2964 1.512C36.2964 1.472 36.2924 1.444 36.2844 1.428C36.2844 1.412 36.2764 1.404 36.2604 1.404C36.1804 1.404 36.0404 1.544 35.8404 1.824C35.6484 2.104 35.4284 2.476 35.1804 2.94C34.9324 3.396 34.6924 3.892 34.4604 4.428Z" fill="black"/>
</svg>
